<svg width="982" height="200" viewBox="0 0 982 200" fill="none" xmlns="http://www.w3.org/2000/svg">
<path d="M82.7294 47.7612V57.7825C75.6931 49.6802 65.245 44.7761 50.9595 44.7761C23.0277 44.7761 0 69.2963 0 101.066C0 132.836 23.0277 157.356 50.9595 157.356C65.245 157.356 75.6931 152.452 82.7294 144.35V154.371H114.712V47.7612H82.7294ZM57.3561 127.079C42.6439 127.079 31.9829 117.058 31.9829 101.066C31.9829 85.0744 42.6439 75.0531 57.3561 75.0531C72.0681 75.0531 82.7294 85.0744 82.7294 101.066C82.7294 117.058 72.0681 127.079 57.3561 127.079Z" fill="url(#paint0_linear_2_2)"/>
<path d="M201.929 44.7761C187.643 44.7761 177.196 49.6802 170.159 57.7825V47.7612H138.176V197.015H170.159V144.35C177.196 152.452 187.643 157.356 201.929 157.356C229.861 157.356 252.889 132.836 252.889 101.066C252.889 69.2963 229.861 44.7761 201.929 44.7761ZM195.532 127.079C180.82 127.079 170.159 117.058 170.159 101.066C170.159 85.0744 180.82 75.0531 195.532 75.0531C210.244 75.0531 220.906 85.0744 220.906 101.066C220.906 117.058 210.244 127.079 195.532 127.079Z" fill="url(#paint1_linear_2_2)"/>
<path d="M287.014 38.3796C297.461 38.3796 306.203 29.6375 306.203 19.1897C306.203 8.742 297.461 0 287.014 0C276.566 0 267.824 8.742 267.824 19.1897C267.824 29.6375 276.566 38.3796 287.014 38.3796ZM271.022 154.371H303.005V47.7612H271.022V154.371Z" fill="url(#paint2_linear_2_2)"/>
<path d="M404.661 47.7612V58.6354C397.624 49.8934 387.39 44.7761 373.531 44.7761C343.254 44.7761 321.079 69.5094 321.079 98.9338C321.079 128.358 343.254 153.092 373.531 153.092C387.39 153.092 397.624 147.974 404.661 139.233V149.041C404.661 164.179 395.493 171.855 380.567 171.855C366.494 171.855 360.311 165.885 356.26 158.422L328.968 174.201C338.776 191.684 357.326 200 379.501 200C407.859 200 435.791 184.861 435.791 149.041V47.7612H404.661ZM378.861 123.668C363.723 123.668 353.062 113.646 353.062 98.9338C353.062 84.2219 363.723 74.2006 378.861 74.2006C394 74.2006 404.661 84.2219 404.661 98.9338C404.661 113.646 394 123.668 378.861 123.668Z" fill="url(#paint3_linear_2_2)"/>
<path d="M536.654 47.7612V57.7825C529.618 49.6802 519.17 44.7761 504.884 44.7761C476.953 44.7761 453.924 69.2963 453.924 101.066C453.924 132.836 476.953 157.356 504.884 157.356C519.17 157.356 529.618 152.452 536.654 144.35V154.371H568.637V47.7612H536.654ZM511.281 127.079C496.569 127.079 485.908 117.058 485.908 101.066C485.908 85.0744 496.569 75.0531 511.281 75.0531C525.993 75.0531 536.654 85.0744 536.654 101.066C536.654 117.058 525.993 127.079 511.281 127.079Z" fill="url(#paint4_linear_2_2)"/>
<path d="M711.506 44.7761C696.363 44.7761 686.556 50.3198 680.588 58.8486C674.619 49.8934 665.238 44.7761 652.656 44.7761C638.369 44.7761 628.988 50.3198 624.084 57.5693V47.7612H592.101V154.371H624.084V94.2431C624.084 81.6631 630.056 74.2006 640.713 74.2006C650.95 74.2006 656.069 81.0238 656.069 91.6844V154.371H688.05V94.2431C688.05 81.6631 694.019 74.2006 704.681 74.2006C714.913 74.2006 720.031 81.0238 720.031 91.6844V154.371H752.013V88.9125C752.013 62.2601 736.025 44.7761 711.506 44.7761Z" fill="url(#paint5_linear_2_2)"/>
<path d="M802.45 113.859H878.144C878.994 109.808 879.425 105.544 879.425 101.066C879.425 68.87 856.394 44.7761 825.263 44.7761C791.575 44.7761 768.55 69.2963 768.55 101.066C768.55 132.836 791.15 157.356 827.612 157.356C847.869 157.356 863.644 149.893 874.094 135.394L848.506 120.683C844.244 125.373 836.781 128.784 828.037 128.784C816.312 128.784 806.5 124.947 802.45 113.859ZM801.812 89.9788C804.794 79.1044 812.9 73.1344 825.05 73.1344C834.644 73.1344 844.244 77.6119 847.65 89.9788H801.812Z" fill="url(#paint6_linear_2_2)"/>
<path d="M923.675 78.8913C923.675 75.0531 927.087 72.9213 932.631 72.9213C939.669 72.9213 943.931 76.7588 946.919 82.3025L974.206 67.5906C965.256 52.4521 949.9 44.7761 932.631 44.7761C910.456 44.7761 890.837 56.5032 890.837 79.7444C890.837 116.631 943.294 110.448 943.294 122.175C943.294 126.439 939.456 128.784 931.775 128.784C922.394 128.784 916.425 124.307 913.656 116.205L885.938 131.983C894.25 149.254 910.456 157.356 931.775 157.356C954.806 157.356 976.125 146.908 976.125 122.388C976.125 82.9425 923.675 91.045 923.675 78.8913Z" fill="url(#paint7_linear_2_2)"/>
<defs>
<linearGradient id="paint0_linear_2_2" x1="275.409" y1="71.0731" x2="923.95" y2="142.146" gradientUnits="userSpaceOnUse">
<stop stop-color="#FF4001"/>
<stop offset="1" stop-color="#F87144"/>
</linearGradient>
<linearGradient id="paint1_linear_2_2" x1="275.409" y1="71.0731" x2="923.95" y2="142.146" gradientUnits="userSpaceOnUse">
<stop stop-color="#FF4001"/>
<stop offset="1" stop-color="#F87144"/>
</linearGradient>
<linearGradient id="paint2_linear_2_2" x1="275.409" y1="71.0731" x2="923.95" y2="142.146" gradientUnits="userSpaceOnUse">
<stop stop-color="#FF4001"/>
<stop offset="1" stop-color="#F87144"/>
</linearGradient>
<linearGradient id="paint3_linear_2_2" x1="275.409" y1="71.0731" x2="923.95" y2="142.146" gradientUnits="userSpaceOnUse">
<stop stop-color="#FF4001"/>
<stop offset="1" stop-color="#F87144"/>
</linearGradient>
<linearGradient id="paint4_linear_2_2" x1="275.409" y1="71.0731" x2="923.95" y2="142.146" gradientUnits="userSpaceOnUse">
<stop stop-color="#FF4001"/>
<stop offset="1" stop-color="#F87144"/>
</linearGradient>
<linearGradient id="paint5_linear_2_2" x1="275.409" y1="71.0731" x2="923.95" y2="142.146" gradientUnits="userSpaceOnUse">
<stop stop-color="#FF4001"/>
<stop offset="1" stop-color="#F87144"/>
</linearGradient>
<linearGradient id="paint6_linear_2_2" x1="275.409" y1="71.0731" x2="923.95" y2="142.146" gradientUnits="userSpaceOnUse">
<stop stop-color="#FF4001"/>
<stop offset="1" stop-color="#F87144"/>
</linearGradient>
<linearGradient id="paint7_linear_2_2" x1="275.409" y1="71.0731" x2="923.95" y2="142.146" gradientUnits="userSpaceOnUse">
<stop stop-color="#FF4001"/>
<stop offset="1" stop-color="#F87144"/>
</linearGradient>
</defs>
</svg>
